<svg width="37" height="20" viewBox="0 0 37 20" fill="none" xmlns="http://www.w3.org/2000/svg">
<path fill-rule="evenodd" clip-rule="evenodd" d="M17.4494 11.1684C16.4123 11.8107 14.2159 12.7645 10.3186 12.7645C6.42111 12.7645 4.22481 11.8107 3.18773 11.1684C2.7146 10.8755 2.43373 10.3776 2.43373 9.84722V7.56464C2.43373 6.9782 2.94248 6.50269 3.56998 6.50269H10.3186H17.0671C17.6946 6.50269 18.2033 6.9782 18.2033 7.56464V9.84722C18.2033 10.3776 17.9225 10.8755 17.4494 11.1684ZM10.3186 0C4.69735 0 0.140503 4.25917 0.140503 9.51314C0.140503 14.7672 4.69735 19.0264 10.3186 19.0264C15.9398 19.0264 20.4966 14.7672 20.4966 9.51314C20.4966 4.25917 15.9398 0 10.3186 0ZM6.69995 8.04395C6.05247 8.04395 5.52753 8.53451 5.52753 9.13977C5.52753 9.74496 6.05247 10.2356 6.69995 10.2356C7.34743 10.2356 7.87236 9.74496 7.87236 9.13977C7.87236 8.53451 7.34743 8.04395 6.69995 8.04395ZM12.7645 9.13977C12.7645 8.53451 13.2895 8.04395 13.937 8.04395C14.5845 8.04395 15.1094 8.53451 15.1094 9.13977C15.1094 9.74496 14.5845 10.2356 13.937 10.2356C13.2895 10.2356 12.7645 9.74496 12.7645 9.13977Z" fill="#B1B0B2"/>
<mask id="path-2-outside-1_1_25" maskUnits="userSpaceOnUse" x="16.354" y="0" width="21" height="19" fill="black">
<rect fill="white" x="16.354" width="21" height="19"/>
<path fill-rule="evenodd" clip-rule="evenodd" d="M25.2466 2C24.6943 2 24.2466 2.44772 24.2466 3V7.5H19.354C18.8017 7.5 18.354 7.94772 18.354 8.5V10.5C18.354 11.0523 18.8017 11.5 19.354 11.5H24.2466V16C24.2466 16.5523 24.6943 17 25.2466 17H27.5321C28.0843 17 28.5321 16.5523 28.5321 16V11.5H33.4246C33.9769 11.5 34.4246 11.0523 34.4246 10.5V8.5C34.4246 7.94772 33.9769 7.5 33.4246 7.5H28.5321V3C28.5321 2.44772 28.0843 2 27.5321 2H25.2466Z"/>
</mask>
<path fill-rule="evenodd" clip-rule="evenodd" d="M25.2466 2C24.6943 2 24.2466 2.44772 24.2466 3V7.5H19.354C18.8017 7.5 18.354 7.94772 18.354 8.5V10.5C18.354 11.0523 18.8017 11.5 19.354 11.5H24.2466V16C24.2466 16.5523 24.6943 17 25.2466 17H27.5321C28.0843 17 28.5321 16.5523 28.5321 16V11.5H33.4246C33.9769 11.5 34.4246 11.0523 34.4246 10.5V8.5C34.4246 7.94772 33.9769 7.5 33.4246 7.5H28.5321V3C28.5321 2.44772 28.0843 2 27.5321 2H25.2466Z" fill="#B1B0B2"/>
<path d="M24.2466 7.5V9.5H26.2466V7.5H24.2466ZM24.2466 11.5H26.2466V9.5H24.2466V11.5ZM28.5321 11.5V9.5H26.5321V11.5H28.5321ZM28.5321 7.5H26.5321V9.5H28.5321V7.5ZM26.2466 3C26.2466 3.55228 25.7988 4 25.2466 4V0C23.5897 0 22.2466 1.34315 22.2466 3H26.2466ZM26.2466 7.5V3H22.2466V7.5H26.2466ZM19.354 9.5H24.2466V5.5H19.354V9.5ZM20.354 8.5C20.354 9.05228 19.9063 9.5 19.354 9.5V5.5C17.6971 5.5 16.354 6.84315 16.354 8.5H20.354ZM20.354 10.5V8.5H16.354V10.5H20.354ZM19.354 9.5C19.9063 9.5 20.354 9.94772 20.354 10.5H16.354C16.354 12.1569 17.6972 13.5 19.354 13.5V9.5ZM24.2466 9.5H19.354V13.5H24.2466V9.5ZM26.2466 16V11.5H22.2466V16H26.2466ZM25.2466 15C25.7988 15 26.2466 15.4477 26.2466 16H22.2466C22.2466 17.6569 23.5897 19 25.2466 19V15ZM27.5321 15H25.2466V19H27.5321V15ZM26.5321 16C26.5321 15.4477 26.9798 15 27.5321 15V19C29.1889 19 30.5321 17.6569 30.5321 16H26.5321ZM26.5321 11.5V16H30.5321V11.5H26.5321ZM33.4246 9.5H28.5321V13.5H33.4246V9.5ZM32.4246 10.5C32.4246 9.94771 32.8723 9.5 33.4246 9.5V13.5C35.0815 13.5 36.4246 12.1569 36.4246 10.5H32.4246ZM32.4246 8.5V10.5H36.4246V8.5H32.4246ZM33.4246 9.5C32.8723 9.5 32.4246 9.05228 32.4246 8.5H36.4246C36.4246 6.84315 35.0815 5.5 33.4246 5.5V9.5ZM28.5321 9.5H33.4246V5.5H28.5321V9.5ZM26.5321 3V7.5H30.5321V3H26.5321ZM27.5321 4C26.9798 4 26.5321 3.55228 26.5321 3H30.5321C30.5321 1.34315 29.1889 0 27.5321 0V4ZM25.2466 4H27.5321V0H25.2466V4Z" fill="white" mask="url(#path-2-outside-1_1_25)"/>
</svg>
